<svg xmlns="http://www.w3.org/2000/svg" xmlns:cc="http://web.resource.org/cc/" xmlns:ns1="http://sozi.baierouge.fr" xmlns:svg="http://www.w3.org/2000/svg" xmlns:xlink="http://www.w3.org/1999/xlink" id="svg1878" version="1.0" viewBox="0 0 52.937 50.4"><defs id="defs3"><linearGradient id="linearGradient6116" x1="-50.436" x2="-50.436" y1="124.95" y2="165.63" gradientTransform="matrix(2.1364 0 0 .41825 475.36 179.75)" gradientUnits="userSpaceOnUse"><stop id="stop2374" offset="0" stop-color="#006f9d"/><stop id="stop2376" offset="1" stop-color="#7bcefb"/></linearGradient><linearGradient id="linearGradient6118" x1="-53.428" x2="-31.586" y1="109.79" y2="95.684" gradientTransform="matrix(0 .86707 -.59469 0 434.3 235.46)" gradientUnits="userSpaceOnUse"><stop id="stop2317" offset="0" stop-color="#83cb46"/><stop id="stop2319" offset="1" stop-color="#fff"/></linearGradient><linearGradient id="linearGradient6120" x1="155.51" x2="173.43" y1="-459.75" y2="-440.71" gradientTransform="matrix(0 1.2075 -.82817 0 0 0)" gradientUnits="userSpaceOnUse"><stop id="stop11464" offset="0" stop-color="#80ff26"/><stop id="stop11466" offset="1" stop-color="#2c9600"/></linearGradient></defs><g id="layer1" transform="translate(-253.07 -186.96)"><g id="g9947" transform="translate(-79.667 22.588)"><g id="g9949" transform="translate(-9.805 -70.322)"><rect id="rect9951" width="46.921" height="36.077" x="343.42" y="236.18" fill="#e5e7f6" stroke="#0f2965" stroke-width="1.75" color="#000" rx="1" ry="1"/><g id="g9953" fill="#2dabdc" transform="translate(491.98 178.21)"><rect id="rect9955" width="18.379" height="2.451" x="-136.82" y="70.907" color="#000" rx="1" ry="1"/><rect id="rect9957" width="4.084" height="2.451" x="140.09" y="70.907" color="#000" rx="1" ry="1" transform="scale(-1,1)"/></g><g id="g9959" fill="#2dabdc" transform="translate(491.98 183.08)"><rect id="rect9961" width="18.379" height="2.451" x="-136.82" y="70.907" color="#000" rx="1" ry="1"/><rect id="rect9963" width="4.084" height="2.451" x="140.09" y="70.907" color="#000" rx="1" ry="1" transform="scale(-1,1)"/></g><g id="g9965" fill="#2dabdc" transform="translate(491.98 187.95)"><rect id="rect9967" width="18.379" height="2.451" x="-136.82" y="70.907" color="#000" rx="1" ry="1"/><rect id="rect9969" width="4.084" height="2.451" x="140.09" y="70.907" color="#000" rx="1" ry="1" transform="scale(-1,1)"/></g><g id="g9971" fill="#2dabdc" transform="translate(491.98 192.82)"><rect id="rect9973" width="18.379" height="2.451" x="-136.82" y="70.907" color="#000" rx="1" ry="1"/><rect id="rect9975" width="4.084" height="2.451" x="140.09" y="70.907" color="#000" rx="1" ry="1" transform="scale(-1,1)"/></g><rect id="rect9977" width="46.921" height="7.742" x="343.42" y="235.56" fill="url(#linearGradient6116)" stroke="#0f2965" stroke-width="1.75" color="#000" rx="1" ry="1"/><g id="g9979" fill="#2dabdc" transform="translate(491.98 183.08)"><rect id="rect9981" width="18.379" height="2.451" x="-136.82" y="70.907" color="#000" rx="1" ry="1"/><rect id="rect9983" width="4.084" height="2.451" x="140.09" y="70.907" color="#000" rx="1" ry="1" transform="scale(-1,1)"/></g></g><g id="g9985"><path id="path9987" fill="url(#linearGradient6118)" stroke="#fff" stroke-linecap="round" stroke-linejoin="round" stroke-width="6.625" d="m382.36 201.45h-3.86v-15.08h-11.04v15.08h-3.88l9.4 10.01 9.38-10.01z" color="#000"/><path id="path9989" fill="url(#linearGradient6120)" stroke="#116b1c" stroke-linejoin="round" stroke-width="1.75" d="m382.36 201.45h-3.86v-15.08h-11.04v15.08h-3.88l9.4 10.01 9.38-10.01z" color="#000"/></g></g></g><metadata/></svg>