<svg xmlns="http://www.w3.org/2000/svg" xmlns:cc="http://web.resource.org/cc/" xmlns:ns1="http://sozi.baierouge.fr" xmlns:svg="http://www.w3.org/2000/svg" xmlns:xlink="http://www.w3.org/1999/xlink" id="svg1878" version="1.0" viewBox="0 0 52.937 49.841"><defs id="defs3"><linearGradient id="linearGradient3806" x1="-50.436" x2="-50.436" y1="124.95" y2="165.63" gradientTransform="matrix(2.1364 0 0 .41825 553.07 180.3)" gradientUnits="userSpaceOnUse"><stop id="stop2374" offset="0" stop-color="#006f9d"/><stop id="stop2376" offset="1" stop-color="#7bcefb"/></linearGradient><linearGradient id="linearGradient3808" x1="-53.428" x2="-31.586" y1="109.79" y2="95.684" gradientTransform="matrix(0 -.86707 .59469 0 393.88 233.8)" gradientUnits="userSpaceOnUse"><stop id="stop2317" offset="0" stop-color="#83cb46"/><stop id="stop2319" offset="1" stop-color="#fff"/></linearGradient><linearGradient id="linearGradient3810" x1="-215.2" x2="-232.25" y1="558.8" y2="540.77" gradientTransform="matrix(0 -1.2075 .82817 0 0 0)" gradientUnits="userSpaceOnUse"><stop id="stop7092" offset="0" stop-color="#ff2a26"/><stop id="stop7094" offset="1" stop-color="#96000d"/></linearGradient></defs><g id="layer1" transform="translate(-335.31 -245.5)"><g id="g9859" transform="translate(-79.667 9.1343)"><g id="g9861" transform="translate(-5.2807 1.1198)"><rect id="rect9863" width="46.921" height="36.077" x="421.13" y="236.74" fill="#e5e7f6" stroke="#0f2965" stroke-width="1.75" color="#000" rx="1" ry="1"/><g id="g9865" fill="#2dabdc" transform="translate(569.7 178.77)"><rect id="rect9867" width="18.379" height="2.451" x="-136.82" y="70.907" color="#000" rx="1" ry="1"/><rect id="rect9869" width="4.084" height="2.451" x="140.09" y="70.907" color="#000" rx="1" ry="1" transform="scale(-1,1)"/></g><g id="g9871" fill="#2dabdc" transform="translate(569.7 183.64)"><rect id="rect9873" width="18.379" height="2.451" x="-136.82" y="70.907" color="#000" rx="1" ry="1"/><rect id="rect9875" width="4.084" height="2.451" x="140.09" y="70.907" color="#000" rx="1" ry="1" transform="scale(-1,1)"/></g><g id="g9877" fill="#2dabdc" transform="translate(569.7 188.51)"><rect id="rect9879" width="18.379" height="2.451" x="-136.82" y="70.907" color="#000" rx="1" ry="1"/><rect id="rect9881" width="4.084" height="2.451" x="140.09" y="70.907" color="#000" rx="1" ry="1" transform="scale(-1,1)"/></g><g id="g9883" fill="#2dabdc" transform="translate(569.7 193.37)"><rect id="rect9885" width="18.379" height="2.451" x="-136.82" y="70.907" color="#000" rx="1" ry="1"/><rect id="rect9887" width="4.084" height="2.451" x="140.09" y="70.907" color="#000" rx="1" ry="1" transform="scale(-1,1)"/></g><rect id="rect9889" width="46.921" height="7.742" x="421.13" y="236.12" fill="url(#linearGradient3806)" stroke="#0f2965" stroke-width="1.75" color="#000" rx="1" ry="1"/><g id="g9891" fill="#2dabdc" transform="translate(569.7 183.64)"><rect id="rect9893" width="18.379" height="2.451" x="-136.82" y="70.907" color="#000" rx="1" ry="1"/><rect id="rect9895" width="4.084" height="2.451" x="140.09" y="70.907" color="#000" rx="1" ry="1" transform="scale(-1,1)"/></g></g><g id="g9897"><path id="path9899" fill="url(#linearGradient3808)" stroke="#fff" stroke-linecap="round" stroke-linejoin="round" stroke-width="6.625" d="m445.82 267.82h3.86v15.08h11.04v-15.08h3.88l-9.4-10.01-9.38 10.01z" color="#000"/><path id="path9901" fill="url(#linearGradient3810)" stroke="#6b1a11" stroke-linejoin="round" stroke-width="1.75" d="m445.82 267.82h3.86v15.08h11.04v-15.08h3.88l-9.4-10.01-9.38 10.01z" color="#000"/></g></g></g><metadata/></svg>