<svg xmlns="http://www.w3.org/2000/svg" xmlns:cc="http://web.resource.org/cc/" xmlns:ns1="http://sozi.baierouge.fr" xmlns:svg="http://www.w3.org/2000/svg" xmlns:xlink="http://www.w3.org/1999/xlink" id="svg1878" version="1.0" viewBox="0 0 52.937 49.841"><defs id="defs3"><linearGradient id="linearGradient6299" x1="-50.436" x2="-50.436" y1="124.95" y2="165.63" gradientTransform="matrix(2.1364 0 0 .41825 553.07 180.3)" gradientUnits="userSpaceOnUse"><stop id="stop2374" offset="0" stop-color="#006f9d"/><stop id="stop2376" offset="1" stop-color="#7bcefb"/></linearGradient><linearGradient id="linearGradient6301" x1="-53.428" x2="-31.586" y1="109.79" y2="95.684" gradientTransform="matrix(0 -.86707 .59469 0 393.88 161.8)" gradientUnits="userSpaceOnUse"><stop id="stop2317" offset="0" stop-color="#83cb46"/><stop id="stop2319" offset="1" stop-color="#fff"/></linearGradient><linearGradient id="linearGradient6303" x1="-155.74" x2="-171.94" y1="558.8" y2="541.27" gradientTransform="matrix(0 -1.2075 .82817 0 0 0)" gradientUnits="userSpaceOnUse"><stop id="stop11464" offset="0" stop-color="#80ff26"/><stop id="stop11466" offset="1" stop-color="#2c9600"/></linearGradient></defs><g id="layer1" transform="translate(-335.31 -186.96)"><g id="g10035" transform="translate(-79.667 22.588)"><g id="g10037" transform="translate(-5.2807 -70.88)"><rect id="rect10039" width="46.921" height="36.077" x="421.13" y="236.74" fill="#e5e7f6" stroke="#0f2965" stroke-width="1.75" color="#000" rx="1" ry="1"/><g id="g10041" fill="#2dabdc" transform="translate(569.7 178.77)"><rect id="rect10043" width="18.379" height="2.451" x="-136.82" y="70.907" color="#000" rx="1" ry="1"/><rect id="rect10045" width="4.084" height="2.451" x="140.09" y="70.907" color="#000" rx="1" ry="1" transform="scale(-1,1)"/></g><g id="g10047" fill="#2dabdc" transform="translate(569.7 183.64)"><rect id="rect10049" width="18.379" height="2.451" x="-136.82" y="70.907" color="#000" rx="1" ry="1"/><rect id="rect10051" width="4.084" height="2.451" x="140.09" y="70.907" color="#000" rx="1" ry="1" transform="scale(-1,1)"/></g><g id="g10053" fill="#2dabdc" transform="translate(569.7 188.51)"><rect id="rect10055" width="18.379" height="2.451" x="-136.82" y="70.907" color="#000" rx="1" ry="1"/><rect id="rect10057" width="4.084" height="2.451" x="140.09" y="70.907" color="#000" rx="1" ry="1" transform="scale(-1,1)"/></g><g id="g10059" fill="#2dabdc" transform="translate(569.7 193.37)"><rect id="rect10061" width="18.379" height="2.451" x="-136.82" y="70.907" color="#000" rx="1" ry="1"/><rect id="rect10063" width="4.084" height="2.451" x="140.09" y="70.907" color="#000" rx="1" ry="1" transform="scale(-1,1)"/></g><rect id="rect10065" width="46.921" height="7.742" x="421.13" y="236.12" fill="url(#linearGradient6299)" stroke="#0f2965" stroke-width="1.75" color="#000" rx="1" ry="1"/><g id="g10067" fill="#2dabdc" transform="translate(569.7 183.64)"><rect id="rect10069" width="18.379" height="2.451" x="-136.82" y="70.907" color="#000" rx="1" ry="1"/><rect id="rect10071" width="4.084" height="2.451" x="140.09" y="70.907" color="#000" rx="1" ry="1" transform="scale(-1,1)"/></g></g><g id="g10073"><path id="path10075" fill="url(#linearGradient6301)" stroke="#fff" stroke-linecap="round" stroke-linejoin="round" stroke-width="6.625" d="m445.82 195.82h3.86v15.08h11.04v-15.08h3.88l-9.4-10.01-9.38 10.01z" color="#000"/><path id="path10077" fill="url(#linearGradient6303)" stroke="#116b1c" stroke-linejoin="round" stroke-width="1.75" d="m445.82 195.82h3.86v15.08h11.04v-15.08h3.88l-9.4-10.01-9.38 10.01z" color="#000"/></g></g></g><metadata/></svg>