<svg xmlns="http://www.w3.org/2000/svg" xmlns:ns1="http://sozi.baierouge.fr" xmlns:svg="http://www.w3.org/2000/svg" xmlns:xlink="http://www.w3.org/1999/xlink" id="svg2160" version="1.0" viewBox="0 0 64 64"><defs id="defs2162"><radialGradient id="radialGradient2201" cx="15.891" cy="15.163" r="27.545" gradientUnits="userSpaceOnUse"><stop id="stop3145" offset="0" stop-color="#fff"/><stop id="stop3147" offset="1" stop-color="#00f038" stop-opacity="0"/></radialGradient><radialGradient id="radialGradient2203" cx="16.028" cy="16.847" r="27.545" gradientTransform="matrix(.91888 .94532 -.71707 .69701 13.381 -10.047)" gradientUnits="userSpaceOnUse"><stop id="stop3203" offset="0" stop-color="#ff9b9b"/><stop id="stop3205" offset="1" stop-color="#f00000"/></radialGradient></defs><g id="layer1"><g id="g2184" transform="translate(-59.5 -0.5)"><path id="path3185" fill="url(#radialGradient2201)" d="m55.091 27.727a27.545 27.545 0 1 1 -55.091 0 27.545 27.545 0 1 1 55.091 0z" transform="matrix(.99849 0 0 .99849 63.996 4.8147)"/><path id="path3187" fill="url(#radialGradient2203)" stroke="#be0000" stroke-linecap="round" stroke-linejoin="round" stroke-width="2.504" d="m55.091 27.727a27.545 27.545 0 1 1 -55.091 0 27.545 27.545 0 1 1 55.091 0z" transform="matrix(.99849 0 0 .99849 63.996 4.8147)"/><path id="path3207" fill="#fff" d="m95.594 19.312c-1.798 1.551-3.145 4.37-4.532 5.844-2.631-2.177-3.818-6.236-6.656-7.375-3.44 0.919-8.904 4.136-4.875 7.625 2.058 3.043 6.195 5.747 7.157 8.906-1.468 3.79-4.292 6.616-7.032 9.376 1.34 4.675 7.755 0.524 10.344-1.75 2.065-4.634 3.568 0.898 5.499 2.891 1.541 6.222 9.801 4.403 10.521-0.74-2.84-4.549-6.781-8.924-9.52-13.401 1.085-4.655 5.63-7.771 6.69-12.282-1.79-3.122-5.284 0.353-7.596 0.906z"/></g></g><metadata/></svg>