<svg xmlns="http://www.w3.org/2000/svg" xmlns:ns1="http://sozi.baierouge.fr" xmlns:svg="http://www.w3.org/2000/svg" xmlns:xlink="http://www.w3.org/1999/xlink" id="svg2160" version="1.0" viewBox="0 0 64 64"><defs id="defs2162"><radialGradient id="radialGradient2197" cx="15.891" cy="15.163" r="27.545" gradientUnits="userSpaceOnUse"><stop id="stop3145" offset="0" stop-color="#fff"/><stop id="stop3147" offset="1" stop-color="#00f038" stop-opacity="0"/></radialGradient><radialGradient id="radialGradient2199" cx="16.028" cy="16.847" r="27.545" gradientTransform="matrix(.91888 .94532 -.71707 .69701 13.381 -10.047)" gradientUnits="userSpaceOnUse"><stop id="stop3179" offset="0" stop-color="#9bffb3"/><stop id="stop3181" offset="1" stop-color="#00f038"/></radialGradient></defs><g id="layer1"><g id="g2179" transform="translate(0.5 -0.5)"><path id="path3141" fill="url(#radialGradient2197)" d="m55.091 27.727a27.545 27.545 0 1 1 -55.091 0 27.545 27.545 0 1 1 55.091 0z" transform="matrix(.99849 0 0 .99849 3.9962 4.8147)"/><path id="path2168" fill="url(#radialGradient2199)" stroke="#00be31" stroke-linecap="round" stroke-linejoin="round" stroke-width="2.504" d="m55.091 27.727a27.545 27.545 0 1 1 -55.091 0 27.545 27.545 0 1 1 55.091 0z" transform="matrix(.99849 0 0 .99849 3.9962 4.8147)"/><path id="path3167" fill="#fff" d="m47.25 15.71c-9.325 2.509-17.627 10.014-19.25 19.781-3.925-2.606-7.217-7.955-11.969-8.218-3.137 1.633-10.434 5.866-4.281 8.343 5.505 4.278 13.752 8.131 15.062 15.563 2.69 2.513 6.167-1.059 8.969-2 3.474-5.623-0.428-13.37 2.938-19.344 1.738-5.634 7.82-7.914 11.281-12-0.003-1.483-1.361-2.51-2.75-2.125z"/></g></g><metadata/></svg>